<svg viewBox="0 0 24 24" xmlns="http://www.w3.org/2000/svg">
    <linearGradient id="shadowGradient" gradientUnits="userSpaceOnUse" x1="3.390324" x2="4.17945" y1="1.904469" y2="2.502862">
        <stop offset="0" stop-opacity=".4"/>
        <stop offset="1" stop-opacity="0"/>
    </linearGradient>
    <g transform="matrix(2.211135 0 0 2.211135 5.040552 4.746994)">
        <path fill="#6ac6cb" d="m2.9851808.79374999.2917941 2.12366381s.1742001.3276595.2718633.4852614c.081969.1322759.2251227.226905.2791712.3610227.072426.1797207.085237.245379.1790392.4420527.1287404.2699292.3254323.6562474.3705339.8514899-.058497.099929-.1078824.1287829-.1673533.181618-.059022.052436-.084647.087381-.1629751.1720964 0 0-.1391532.049529-.2119364.055542-.092319.00763-.13167.1256144-.00585.1695492.063931.022323.1726748.049329.2802014.045099.1805157-.0071.3629157-.059715.3629157-.059715s.258938-.029971.3858705-.058465c.1572074-.035291.1046301-.118267.087698-.1929352-.023915-.1054601-.096467-.251401-.096467-.251401s-.029852-.0001413-.049696-.01754c-.0301861-.0264687-.0553614-.1403465-.0553614-.1403465-.0831097-.2048656-.1815671-.5089384-.2212869-.7569537-.0550065-.3434673-.1475203-.5057942-.3057971-.7538-.1464984-.3420303-.2597321-.7439611-.3539368-1.0373105-.0761709-.2371931-.0464063-.4455516-.022966-.5178267.0782164-.2411705.0282633-.4175694-.0608663-.5589215-.1221127-.1936606-.1812561-.3178556-.2924869-.54218001z"/>
        <path fill="url(#shadowGradient)" d="m2.9851808.79374999.2917941 2.12366381s.1742001.3276595.2718633.4852614c.081969.1322759.2251227.226905.2791712.3610227.072426.1797207.5478123-.0657015.3895355-.3137073-.1464984-.3420322-.2597321-.743963-.3539368-1.0373124-.0761709-.2371931-.0464063-.4455516-.022966-.5178267.0782164-.2411705.0282633-.4175694-.0608663-.5589215-.1221127-.1936606-.1812561-.3178556-.2924869-.54218001z"/>
    </g>
    <path fill="#9ed8dc" d="m11.069994 6.5020829s-.06932.7287735-.0168 1.0748866c.04623.3045748.260324.8187613.260324.8187613-.374992.9311031-.527977 1.7738862-.630505 2.9425622-.152904.543251-.289603.908254-.115484 1.430149.02127.161481.03685.259963-.0097.438715-.147358.565569-.392899 2.033527-.835163 2.835139-.1980264.175929-.3189167.342821-.4677869.452658-.1911818.141055-.3378152.199642-.5339922.291844l-.4998293.04831c-.2181285-.01263-.4316117.310771.01455.489925.2068517.08306.3513217.169568.6208007.17252.4991246.0055.6183877-.05344 1.6091167-.08523.35937-.01154.276519-.265399.260366-.396603 0 0-.04027-.138523-.04315-.321748-.0029-.183222-.114971-.299634-.114971-.299634.277257-.809027.675974-1.609666.899457-2.146884.20925-.503002.161654-1.074343.287348-1.602924.139054-.584762.423934-1.174856.6029-1.668624.363335-1.0025494.563464-1.0946202 1.001683-1.9193025.228602-.4301888.225415-.9868267.013967-1.3674883-.200778-.3614385-.383732-.7095927-.621706-1.1870323z"/>
</svg>
