<svg viewBox="0 0 2666.6582 2666.6582" xmlns="http://www.w3.org/2000/svg"><g transform="matrix(1.3333333 0 0 -1.3333333 0 2666.6582)"><path d="m466.654 559.29c-.924 2.18-16.607 15.88-22.832 18.42-6.224 2.53-31.805.08-37.914 1.12-6.108 1.03-13.829 1.48-16.709-.25s-1.233-44.25-.654-47.82c.58-3.57 3.586-17.05 3.247-26.27-.338-9.22-3.995-47.48 9.387-66.49 13.383-19 41.392-26.47 45.65-19.21 4.258 7.27-5.545 17.06-3.367 31.69 2.178 14.64 17.742 45.04 23.429 47.54s14.785 9.54 15.358 13.8c.572 4.26 1.029 10.03-3.582 11.18-4.61 1.14-12.013 36.29-12.013 36.29" fill="#3970c0"/><path d="m417.156 444.31c-8.118 17.69-7.734 62.15-6.015 74.94 1.385 10.32-.986 38.74-1.786 59.33-1.431.04-2.625.11-3.447.25-6.108 1.03-13.829 1.48-16.709-.25s-1.233-44.25-.654-47.82c.58-3.57 3.586-17.05 3.248-26.27-.339-9.22-3.996-47.48 9.386-66.49 10.338-14.68 29.394-22.46 39.497-21.9-8.538 7.37-19.01 18.38-23.52 28.21" fill="#d3d2d0"/><path d="m914.938 600.6s-89.399-11.06-130.125-10.56-64.566 7.97-109.017 13.92-111.5-15.41-152.723-21.86c-41.223-6.46-75.772-6.29-75.772-6.29s-3.197-9.11-4.687-12.59c-1.49-3.47 2.483-16.39 2.483-16.39s233.43-13.66 264.72-15.15 254.042-2.23 254.787 8.94c.745 11.18 14.155 15.65 4.47 30.55s-54.136 29.43-54.136 29.43" fill="#ecb088"/><path d="m497.704 578.81c-27.192-2.78-50.403-3-50.403-3s-3.197-9.11-4.687-12.59c-1.49-3.47 2.483-16.39 2.483-16.39s22.91-1.34 55.334-3.22z" fill="#dfdfdd"/><path d="m946.724 505.11c-.496-1.49-22.349-35.26-22.349-35.26s-55.626-3.48-126.649 9.44c-71.022 12.91-94.862 17.38-105.292 19.37-10.43 1.98-81.949 1.98-147.508 2.98-65.559.99-112.742-1.99-112.742-1.99s-3.973 2.48-5.96 2.48-7.45-.49-7.45-.49-16.886 15.39-16.886 24.33 10.43 20.37 10.43 20.37 54.136 8.44 104.795 18.87 64.566 24.83 131.118 16.39c66.553-8.44 106.782-10.43 161.912-6.95 55.129 3.47 104.795 9.93 104.795 9.93l34.766-47.18z" fill="#fbc398"/><path d="m930.334 571.17c-2.483 3.48-15.396 13.41-15.396 13.41v16.02s23.591 2.98 29.551 6.7c5.96 3.73 40.36 24.11 57.491 27.77 19.37 4.15 4.34-48.63-.13-52.35-4.467-3.73-19.367-11.55-19.367-11.55z" fill="#100f0d"/><path d="m1135.21 599.11-32.53 10.8s-32.37 27.16-61.18 30.63c-28.81 3.48-64.479-13.75-77.89-28.65-13.409-14.89-21.853-21.85-28.806-23.83-6.953-1.99-19.866-3.48-19.866-3.48s3.973-80.46 9.437-114.73c0 0 53.639-.99 94.365 5.46 40.73 6.46 70.77 11.18 111.62 10.56s39.86 94.74 35.89 95.23c-3.98.5-31.04 18.01-31.04 18.01" fill="#1a1918"/><path d="m1369.38 633.37c2.49 1.87 21.8 6.94 21.8 6.94s-30.24 8.71-55.94 9.83c-25.71 1.11-79.72-7.45-89.78-8.38-10.05-.93-36.5-7.08-39.85-12.39s6.7-30.26 6.7-30.26-26.44-9.21 33.15-4.79c59.6 4.41 89.78-1.9 106.91 9.64 17.14 11.54 17.01 29.41 17.01 29.41" fill="#ecb088"/><path d="m426.559 537.65c-.966 2.28-17.359 16.61-23.866 19.25-6.506 2.65-33.246.1-39.631 1.17-6.386 1.08-14.457 1.56-17.467-.25s-1.288-46.26-.683-49.99 3.748-17.83 3.395-27.46c-.354-9.64-4.178-49.63 9.811-69.5 13.989-19.86 43.267-27.67 47.717-20.08 4.452 7.59-5.795 17.83-3.519 33.13 2.277 15.3 18.546 47.07 24.491 49.68 5.943 2.62 15.454 9.97 16.053 14.43.598 4.46 1.076 10.48-3.744 11.68-4.819 1.2-12.557 37.94-12.557 37.94" fill="#3970c0"/><path d="m374.818 417.46c-8.485 18.49-8.083 64.97-6.287 78.34 1.448 10.78-1.031 40.49-1.866 62.02-1.497.03-2.745.11-3.603.25-6.386 1.08-14.457 1.56-17.467-.25s-1.288-46.26-.683-49.99 3.748-17.83 3.395-27.46c-.354-9.64-4.178-49.63 9.811-69.5 10.806-15.34 30.725-23.48 41.286-22.9-8.925 7.71-19.871 19.21-24.586 29.49" fill="#e3e2e0"/><path d="m1301.76 408.2s2.98-16.88 12.91-25.33c9.94-8.44 51.53-5.58 62.71-6.33 11.17-.75 33.15-1.49 36.32-1.12 3.16.37 4.28 2.8 4.28 2.8s7.08-.19 10.43.37 4.47 2.79 4.47 2.79 3.73 2.98 3.54 5.96-14.9 8.2-14.9 8.2-7.82 3.54-14.71 6.14c-6.9 2.61-61.4 7.45-73.26 10.99s-18.56 6.52-20.99 5.96c-2.42-.56-10.8-10.43-10.8-10.43" fill="#fbc398"/><g fill="#e7ab83"><path d="m1421.71 390.32c-11.92 3.73-32.97 3.73-32.97 3.73s32.41-6.52 35.95-8.38c3.53-1.87 8.19-4.29 8.19-4.29s1.73 1.41 2.77 3.25c-2.73 1.48-7.29 3.61-13.94 5.69"/><path d="m1408.3 384.92c-12.86 2.98-36.51 1.86-36.51 1.86s27.75-3.16 34.27-4.84 10.24-3.35 11.92-3.72c0 0 4.42-.12 7.93.11-4.17 2.14-10.45 4.93-17.61 6.59"/><path d="m1398.24 399.82c.93-.56 27.15-6.88 28.52-6.33-2.86 1.2-5.24 2.05-5.24 2.05s-7.82 3.54-14.71 6.14c-1.89.72-7.37 1.6-14.55 2.58 3.03-2.28 5.62-4.22 5.98-4.44"/></g><path d="m1251.79 488.47s2.67-33.15 11.57-40.72c8.91-7.56 46.18-5 56.2-5.67 10.01-.67 29.71-1.34 32.55-1 2.83.33 3.84 2.5 3.84 2.5s6.34-.17 9.34.33c3.01.51 4.01 2.51 4.01 2.51s3.34 2.67 3.17 5.34-13.35 7.34-13.35 7.34-7.01 3.18-13.19 5.51c-6.18 2.34-55.02 6.68-65.65 9.85s-16.64 5.84-18.81 5.34-9.68 8.67-9.68 8.67" fill="#ecb088"/><path d="m1359.28 454.43c-10.68 3.34-29.54 3.34-29.54 3.34s29.04-5.84 32.22-7.51c3.17-1.67 7.34-3.84 7.34-3.84s1.55 1.26 2.48 2.91c-2.45 1.32-6.54 3.24-12.5 5.1" fill="#da9a70"/><path d="m1347.27 449.59c-11.52 2.67-32.72 1.67-32.72 1.67s24.87-2.84 30.71-4.34c5.85-1.5 9.18-3 10.69-3.34 0 0 3.96-.1 7.1.1-3.73 1.92-9.37 4.42-15.78 5.91" fill="#da9a70"/><path d="m1338.25 462.94c.84-.5 24.34-6.16 25.56-5.67-2.56 1.07-4.69 1.83-4.69 1.83s-7.01 3.18-13.19 5.51c-1.69.64-6.6 1.43-13.03 2.31 2.71-2.05 5.03-3.78 5.35-3.98" fill="#da9a70"/><path d="m1444.38 543.6-14.9-6.21s-35.02-31.04-39.49-34.39-22.72-27.56-48.79-34.27c-26.08-6.7-34.27-3.35-35.39-3.35s-25.33 9.31-25.33 9.31-36.88-.74-72.64 1.49c-35.76 2.24-77.48 9.69-77.48 9.69s6.34 27.56 7.83 57.73c1.49 30.18-2.98 55.51-2.98 55.51s49.17 4.47 102.81 19.37c53.63 14.89 102.8 26.81 143.03 23.09s61.17-19.93 69.33-30.45c8.15-10.52 12.25-27.29 13-31.38.74-4.1 4.46 2.98 0-10.43-4.47-13.41-19-25.71-19-25.71" fill="#3970c0"/><path d="m1327.04 596.87c1.12 1.86 18.41 25.33 48.8 31.05s57.74-6.13 67.42-24.18c9.69-18.04 7.82-37.41-16.02-54.92s-48.42-21.51-58.85-21.19c-10.43.33-16.02 3.31-16.02 3.31l-29.8-3.32s-.74-25.36 0-55.91c.75-30.54 8.94-60.71 8.94-60.71l-28.68-7.83s-26.45 53.64-35.76 93.87-10.06 65.56-4.84 71.89c5.21 6.34 64.81 27.94 64.81 27.94" fill="#fbc398"/><path d="m1377.98 611.12c-9.2.89-21.58 2.8-31.38 4.43-12.1-8.3-18.87-17.54-19.56-18.68z" fill="#da9a70"/><path d="m1408.62 546.58c-23.1-10.05-56.25-15.64-56.25-15.64s5.59-2.98 16.02-3.3c10.43-.33 35.01 3.67 58.85 21.18 15.34 11.26 21.55 23.3 21.47 35.26-13.09-15.83-28.79-32.57-40.09-37.5" fill="#da9a70"/><path d="m479.747 557.93c-36.766-6.81-67.429-11.59-67.429-11.59s-10.43-11.43-10.43-20.37 16.886-24.33 16.886-24.33 5.464.49 7.45.49c1.987 0 5.96-2.48 5.96-2.48s20.039 1.26 52.129 1.87c-3.356 24.52-4.301 46.16-4.566 56.41" fill="#f7f7f7"/><path d="m1458.91 609.54-8.53 1.58s6.7-14.62 4.26-31.01-25.16-42.72-25.16-42.72l52.85 1.28 29.1 25.4 14.11 42.15-9.07 27.15-45.64-5.45z" fill="#fbc398"/><path d="m1519.37 703.49s-13.66 7.24-33.33 2.27c-19.69-4.96-70.93-60.09-78.91-63.5-7.98-3.42-26.08-.69-26.08-.69s14.9-26.82 39.12-23.84c24.21 2.98 43.45 24.53 43.45 24.53l43.56 28.36z" fill="#34231f"/><path d="m1529.83 699.01s-5.75 4.24-10.46 4.48c-4.71.23-15.57-4.58-21.37-8.63-5.8-4.04-8.84-12.13-8.84-12.13l26.42 2.5z" fill="#3970c0"/><path d="m1601.04 603.18 1.47-12.5s12.61 16.05 12.48 28-12.05 41.16-38.52 63.61c-26.46 22.46-59.77 17.95-73.57 11.31-13.81-6.64-24.12-17.9-24.12-17.9s-11.42-5.54-16.98-21.75c-5.56-16.22-2.89-44.41-2.89-44.41s9.94-6.11 21.22-6.03c15.57.11 22.98 11.28 29.82 15.78s12.61-28.75 16.29-27.49c3.67 1.26 37.64 3.84 43.31 7.76 5.67 3.93 31.49 3.62 31.49 3.62" fill="#34231f"/><path d="m1565.94 598.02c-2.31-.94-25.02 12.06-26.17 11.64-2.89-1.06-12.13.32-13.1 5.02 0 0 .02 4.81-5.16 8.61-5.17 3.8-14.78-6.06-17.79-12.15-3.02-6.08-5.42-17.67-4.68-21.48s3.77-6.59 3.77-6.59-6.61-10.77-9.33-17.56c-2.73-6.79 3.9-31.05 9-40.31.61-1.1 1.21-2.16 1.78-3.15l62.56 71.39z" fill="#fbc398"/><path d="m1503.72 611.14s-7.93-13.14-8.9-19.38c-.98-6.24 2.51-15.07 2.51-15.07l5.48 6.38s-1.96 1.68-3.77 6.59 4.68 21.48 4.68 21.48" fill="#da9a70"/><path d="m1497.95 582.49s-12.36-20.11-14.88-25.88-.74-17.94-.74-17.94h14.82l11.79 34.19-6.13 10.21z" fill="#da9a70"/><path d="m1611.42 609.14s-3.3-10.17-11.75-21.58c-8.46-11.4-24.88-23.61-25.93-24.68-1.06-1.07-3.94-19.05-5.23-23.04-1.3-3.98-3.81-4.67-9.4-2.59-5.58 2.07-7.97 2.85-8.64 2.71-.66-.14-2.33-5.85-2.33-5.85l-13.37-2.9-6.04-7.47s-4.22-2.69-5.66-4.42c-1.44-1.74-4.96-9.06-12.01-6.86-7.04 2.19-23.61 33.21-24.99 40.63-1.39 7.41 42.14 58.85 42.14 58.85s26.85-1.01 41.94 1.5c15.1 2.51 34.03 5.98 41.27-4.3" fill="#fbc398"/><path d="m1541.76 535.12s-5.37.02-7.62.4c-2.26.38-4.65 1.15-4.65 1.15s-1.07.79-1.66.72c-.6-.07-.23-5.44-.35-6.63-.12-1.2-.73-5.38.44-7.55 1.17-2.18 4.95-3.01 7.78-.67s2.94 5.92 2.94 5.92l.52.67s2.21-2.17 5.85-1.54c3.64.62 4.33 5.2 3.13 6.52-1.21 1.31-6.38 1.01-6.38 1.01" fill="#edad82"/><path d="m1531.21 533.84c-1.69 1.31-1.72 2.83-1.72 2.83s-1.07.79-1.66.72c-.39-.05-.37-2.33-.34-4.25.74-.45 2.19-1.48 4.01-1.95 1.93-.51 5.17-1.62 7.04-3.56.09.51.1.83.1.83l.52.67c-.49.44-1.97 1.78-3.43 2.53-1.46.74-2.83.86-4.52 2.18" fill="#d7966a"/><path d="m1531.67 620.97-5-6.29s.93-4.56-1.13-8.46-9.07-11.9-9.07-11.9 12.78 11.17 19.22 11.07 31.57 7.62 31.57 7.62l-21.34 14.91z" fill="#34231f"/><path d="m434.449 1208.45c-1.426 1.9-19.956 11.4-26.608 12.35s-30.884-7.6-37.061-8.07c-6.176-.48-13.779-1.9-16.154-4.28-2.376-2.38 9.502-43.24 10.928-46.56 1.425-3.33 7.602-15.68 9.503-24.71 1.9-9.03 7.602-47.04 25.182-62.24 17.58-15.21 46.563-15.68 48.939-7.61 2.376 8.08-9.503 15.21-10.928 29.94s6.328 47.99 11.241 51.79c4.914 3.8 12.041 12.83 11.566 17.1-.475 4.28-1.426 9.98-6.177 9.98-4.752 0-20.431 32.31-20.431 32.31" fill="#3970c0"/><path d="m414.217 1084.91c-12.154 15.21-22.53 58.45-23.956 71.28-1.149 10.34-10.321 37.34-16.076 57.13-1.397-.31-2.574-.53-3.405-.59-6.176-.48-13.779-1.9-16.154-4.28-2.376-2.38 9.502-43.24 10.928-46.56 1.425-3.33 7.602-15.68 9.503-24.71 1.9-9.03 7.602-47.04 25.182-62.24 13.58-11.75 33.953-14.7 43.622-11.71-10.068 5.09-22.891 13.24-29.644 21.68" fill="#d3d2d0"/><path d="m894.078 1368.81s-141.548-51.66-168.368-57.62c-26.819-5.96-89.398-6.95-123.668-15.39-34.27-8.45-90.889-44.21-116.219-55.63-25.329-11.42-64.069-24.83-64.069-24.83l-6.456-20.37s101.318-.49 140.555 16.89c39.236 17.38 357.595 94.37 357.595 94.37l-23.84 49.66z" fill="#ecb088"/><path d="m463.101 1230.67c-20.898-8.25-41.347-15.33-41.347-15.33l-6.456-20.37s27.103-.12 58.693 2.15z" fill="#ebebea"/><path d="m390.465 1179.08c-1.49 1.99-20.86 11.92-27.813 12.91-6.954 1-32.283-7.94-38.74-8.44-6.456-.5-14.403-1.99-16.886-4.47-2.484-2.48 9.933-45.19 11.423-48.67s7.947-16.39 9.933-25.83c1.987-9.43 7.947-49.17 26.323-65.06 18.377-15.89 48.673-16.39 51.156-7.95 2.483 8.45-9.933 15.9-11.423 31.29-1.49 15.4 6.614 50.17 11.75 54.14s12.586 13.41 12.09 17.88c-.497 4.47-1.49 10.43-6.457 10.43s-21.356 33.77-21.356 33.77" fill="#3970c0"/><path d="m369.317 1049.95c-12.705 15.89-23.552 61.09-25.042 74.5-1.201 10.81-10.788 39.03-16.804 59.72-1.461-.32-2.691-.55-3.559-.62-6.456-.5-14.403-1.99-16.886-4.47-2.484-2.48 9.933-45.19 11.423-48.67s7.947-16.39 9.933-25.83c1.987-9.43 7.947-49.17 26.323-65.06 14.195-12.28 35.492-15.36 45.598-12.24-10.524 5.32-23.928 13.84-30.986 22.67" fill="#e3e2e0"/><path d="m848.427 1352.34 6.232-27.76-35.092-41.41c53.629 13.32 93.881 23.06 93.881 23.06l-23.84 49.66 4.47 12.92s-19.631-7.17-45.651-16.47" fill="#100f0d"/><path d="m850.62 1340s-140.058-49.92-157.937-52.9c-17.88-2.97-59.6-4.47-108.769-11.17s-108.024-48.67-150.24-68.04-57.116-21.36-57.116-21.36-8.94-15.4-6.953-22.35c1.986-6.95 19.866-18.87 19.866-18.87s12.913 2.48 17.383 0c0 0 236.411 62.08 241.874 61.58 5.463-.49 111.252 4.47 168.864 10.43 57.613 5.96 70.278 14.66 70.278 14.66s23.591 40.97 13.658 57.36-50.908 50.66-50.908 50.66" fill="#fbc398"/><path d="m1063.44 1411.52-31.79 2.17s-47.703 14.73-81.476 6.79-69.009-61.86-73.479-67.07c-4.47-5.22-26.075-13.41-26.075-13.41s6.705-26.82 14.9-52.9c8.195-26.07 22.35-55.12 22.35-55.12s66.8 21.6 90.64 30.04c23.84 8.45 55.63 23.84 67.05 27.32s41.22 8.94 41.22 8.94 29.3 46.69 23.84 65.06c-5.46 18.38-8.44 27.82-13.9 31.79-5.47 3.97-33.28 16.39-33.28 16.39" fill="#1a1918"/><path d="m1256.64 1109.75s2.67-15.13 11.58-22.7c8.9-7.56 46.18-5.01 56.19-5.67 10.01-.67 29.71-1.34 32.55-1 2.84.33 3.84 2.5 3.84 2.5s6.34-.17 9.35.33c3 .5 4 2.51 4 2.51s3.34 2.67 3.17 5.34c-.16 2.67-13.35 7.34-13.35 7.34s-7.01 3.17-13.19 5.51c-6.17 2.34-55.02 6.68-65.65 9.85s-16.64 5.84-18.81 5.34-9.68-9.35-9.68-9.35" fill="#ecb088"/><path d="m1364.14 1093.73c-10.69 3.34-29.55 3.34-29.55 3.34s29.05-5.84 32.22-7.51 7.34-3.84 7.34-3.84 1.55 1.26 2.48 2.91c-2.45 1.32-6.53 3.24-12.49 5.1" fill="#da9a70"/><path d="m1352.12 1088.89c-11.52 2.67-32.72 1.67-32.72 1.67s24.87-2.84 30.72-4.34c5.84-1.5 9.18-3.01 10.68-3.34 0 0 3.96-.1 7.1.1-3.73 1.92-9.37 4.42-15.78 5.91" fill="#da9a70"/><path d="m1343.1 1102.24c.84-.5 24.34-6.17 25.56-5.67-2.55 1.07-4.69 1.83-4.69 1.83s-7.01 3.17-13.19 5.51c-1.69.64-6.6 1.43-13.03 2.31 2.71-2.05 5.03-3.78 5.35-3.98" fill="#da9a70"/><path d="m1266.7 1106.22-10.06 3.53s-8.94 60.02-9.31 86.84 0 49.91 0 80.46c0 30.54-7.08 72.26-7.08 72.26h49.54l19.04-17.13-15.69-84.93s-7.07-48.8-9.68-78.97 0-62.06 0-62.06z" fill="#ecb088"/><path d="m1449.88 1607.32c-1.11-.24-16.21 19.88-56.9-.83-40.7-20.71-59.94-58.5-72.15-67.16-12.22-8.66-23.95-10.67-23.95-10.67s19.03-24.52 45.52-9.11c26.48 15.4 59.01 43.12 62.84 48.15s38.27 26.61 38.27 26.61z" fill="#34231f"/><path d="m1458.9 1604.49s-2.28 1.4-12.38 5.31c-4.5 1.75-16.18-3.78-22.35-7.57-6.17-3.8-9.74-11.89-9.74-11.89l27.15 1.02z" fill="#3970c0"/><path d="m1382.32 1521.97s-5.65-4.79-8.78-8.59c-3.14-3.8-42.9-5.51-42.9-5.51l23.59-76.82s26.86 9.95 28.34 10.19c25.44 4.14 48.03 4.14 48.03 4.14s3.16 24.44 5.34 27.67c2.19 3.22 1.36 55.34 1.36 55.34s-13.75 9.03-23.08 6.23c-9.34-2.81-31.9-12.65-31.9-12.65" fill="#fbc398"/><path d="m1524.19 1502.49.77-12.86s13.83 15.67 14.4 27.9c.56 12.22-9.93 42.78-35.68 67.28-25.76 24.5-60.07 21.83-74.57 15.84s-25.7-16.89-25.7-16.89-12-5.01-18.63-21.26c-6.63-16.26-11.24-49.12-11.24-49.12s15.51-2.94 27.04-3.51c15.93-.8 24.15 10.19 31.41 14.39 7.26 4.21 11.22-30.12 15.06-29.05 3.83 1.08 38.71 1.73 44.73 5.42 6.03 3.68 32.41 1.86 32.41 1.86" fill="#34231f"/><path d="m1488 1499.26c-2.42-.83-24.88 13.79-26.08 13.42-3.02-.92-12.38 1.03-13.09 5.9 0 0 .29 4.91-4.78 9.1s-15.47-5.33-18.9-11.38c-3.44-6.05-6.57-17.76-6.04-21.7.54-3.93 3.47-6.96 3.47-6.96s-7.38-10.62-10.56-17.4 2.18-31.98 6.86-41.74c.57-1.17 1.11-2.28 1.64-3.33l68.11 69.35z" fill="#fbc398"/><path d="m1425.15 1516.3s-8.87-12.98-10.23-19.31c-1.37-6.32 1.69-15.55 1.69-15.55l5.97 6.2s-1.9 1.84-3.47 6.96c-1.56 5.13 6.04 21.7 6.04 21.7" fill="#da9a70"/><path d="m1417.58 1487.33s-13.81-19.84-16.72-25.59-1.79-18.29-1.79-18.29l9.39.88 19.8 32.52-5.68 10.79z" fill="#da9a70"/><path d="m1535.15 1507.98s-3.96-10.21-13.27-21.37c-9.32-11.17-26.81-22.7-27.95-23.73s-5.14-19.25-6.69-23.25-4.16-4.55-9.75-2.11c-5.59 2.45-7.99 3.38-8.68 3.28-.68-.11-2.73-5.85-2.73-5.85l-13.83-2.18-6.61-7.29s-4.47-2.5-6.05-4.19-5.6-8.97-12.68-6.32c-7.07 2.66-22.2 35.34-23.19 43-.98 7.66 46.52 57.71 46.52 57.71s27.39-2.59 42.97-.9c15.57 1.69 35.13 4.13 41.94-6.8" fill="#fbc398"/><path d="m1459.62 1436.35s-5.49.34-7.77.86c-2.29.52-4.69 1.45-4.69 1.45s-1.04.86-1.66.83c-.61-.04-.54-5.55-.73-6.76-.2-1.22-1.06-5.45 0-7.75 1.07-2.3 4.89-3.37 7.92-1.14 3.04 2.24 3.35 5.89 3.35 5.89l.58.65s2.12-2.34 5.88-1.92c3.76.43 4.73 5.08 3.58 6.49-1.15 1.42-6.46 1.4-6.46 1.4" fill="#edad82"/><path d="m1448.76 1435.66c-1.65 1.44-1.6 3-1.6 3s-1.04.86-1.66.83c-.39-.03-.5-2.36-.58-4.32.72-.51 2.14-1.65 3.98-2.24 1.95-.62 5.19-1.96 6.99-4.04.12.51.15.84.15.84l.58.65c-.48.48-1.92 1.94-3.37 2.79-1.44.84-2.84 1.05-4.49 2.49" fill="#d7966a"/><path d="m1454.3 1524.72-5.47-6.14s.68-4.71-1.66-8.59c-2.33-3.87-9.96-11.64-9.96-11.64s13.71 10.68 20.29 10.2 32.72 5.96 32.72 5.96l-20.95 16.49z" fill="#34231f"/><path d="m1360.19 1434.19s4.85 17.66 1.87 42.75-30.55 41.86-67.05 35.9c-36.51-5.96-107.9-43.21-138.2-63.08s-81.95-36.26-93.37-38.24c0 0 12.91-34.27 17.88-60.1 4.97-25.82 5.46-53.14 5.46-53.14s51.65 5.96 91.39 14.9c39.73 8.94 61.58 14.4 61.58 14.4s20.86-9.43 51.16.5 69.28 106.11 69.28 106.11" fill="#3970c0"/><path d="m1281.6 1498.87c-1.4-.56-23.1-9.87-34.64-35.58-11.55-25.7-4.85-54.75 34.64-64.81 0 0 6.7-75.99 7.07-97.59.38-21.61 4.47-53.64 4.47-53.64s-4.22-60.72 0-113.36c4.23-52.65 14.16-87.42 14.16-87.42l31.79 4.47s-5.47 48.18 2.98 103.31c8.44 55.13 1.98 118.42 1.98 118.42s.55 65.82 7.45 111.53c6.91 45.72 12.42 79.24-2.48 105.43s-63.8 10.69-67.42 9.24" fill="#fbc398"/><path d="m1282.71 1414.4c-.74 1.76-7.07 14.49-7.07 14.49s.37-8.06 0-14.49c-.19-3.29-2.91-7.86-5.62-12.04 3.5-1.49 7.34-2.8 11.58-3.88 0 0 1.86 14.16 1.11 15.92" fill="#da9a70"/><path d="m1300.17 1251.72s3.4-3.11 8.62-2.61c5.21.5 8.69 1.28 8.69 1.28s-2.23-5.75-9.68-5.75-7.63 7.08-7.63 7.08" fill="#da9a70"/><path d="m1307.3 1046.47s2.98-16.88 12.91-25.33c9.94-8.44 51.53-5.58 62.71-6.33 11.17-.74 33.15-1.49 36.31-1.12 3.17.38 4.29 2.8 4.29 2.8s7.08-.19 10.43.37 4.47 2.79 4.47 2.79 3.72 2.98 3.54 5.96c-.19 2.98-14.9 8.2-14.9 8.2s-7.83 3.54-14.72 6.14c-6.89 2.61-61.4 7.45-73.25 10.99-11.86 3.54-18.57 6.52-20.99 5.96s-10.8-10.43-10.8-10.43" fill="#fbc398"/><path d="m1427.24 1028.59c-11.92 3.73-32.96 3.73-32.96 3.73s32.4-6.52 35.94-8.38c3.54-1.87 8.2-4.29 8.2-4.29s1.73 1.41 2.77 3.25c-2.74 1.48-7.3 3.62-13.95 5.69" fill="#e7ab83"/><path d="m1413.83 1023.19c-12.85 2.98-36.5 1.86-36.5 1.86s27.75-3.16 34.27-4.84c6.52-1.67 10.24-3.35 11.92-3.72 0 0 4.42-.12 7.93.11-4.17 2.14-10.46 4.93-17.62 6.59" fill="#e7ab83"/><path d="m1403.78 1038.09c.93-.56 27.15-6.88 28.51-6.33-2.85 1.2-5.23 2.05-5.23 2.05s-7.83 3.54-14.72 6.14c-1.88.72-7.36 1.6-14.54 2.58 3.02-2.28 5.61-4.22 5.98-4.44" fill="#e7ab83"/><path d="m433.264 1207.7c-41.897-19.19-56.706-21.17-56.706-21.17s-8.94-15.4-6.953-22.35c1.986-6.95 19.866-18.87 19.866-18.87s12.913 2.48 17.383 0c0 0 17.767 4.66 43.625 11.41z" fill="#f7f7f7"/></g></svg>